<mxfile host="app.diagrams.net" modified="2024-05-03T03:12:07.563Z" agent="Mozilla/5.0 (Windows NT 10.0; Win64; x64) AppleWebKit/537.36 (KHTML, like Gecko) Chrome/124.0.0.0 Safari/537.36 Edg/124.0.0.0" etag="iW86-zU_E7ZAVDUcJw17" version="24.3.1" type="device">
  <diagram name="PÃ¡gina-1" id="5uw3b_ArZYEbazCW2I3w">
    <mxGraphModel dx="1152" dy="751" grid="1" gridSize="10" guides="1" tooltips="1" connect="1" arrows="1" fold="1" page="1" pageScale="1" pageWidth="827" pageHeight="1169" math="0" shadow="0">
      <root>
        <mxCell id="0" />
        <mxCell id="1" parent="0" />
        <mxCell id="FQAsNXkLelOl8Rg9aStv-1" value="" style="rounded=0;whiteSpace=wrap;html=1;" vertex="1" parent="1">
          <mxGeometry x="40" y="40" width="550" height="670" as="geometry" />
        </mxCell>
        <mxCell id="FQAsNXkLelOl8Rg9aStv-3" value="" style="rounded=0;whiteSpace=wrap;html=1;" vertex="1" parent="1">
          <mxGeometry x="100" y="90" width="480" height="580" as="geometry" />
        </mxCell>
        <mxCell id="FQAsNXkLelOl8Rg9aStv-2" value="Procesador&lt;div&gt;AMD5600x&amp;nbsp;&lt;/div&gt;&lt;div&gt;6nucleos&lt;/div&gt;&lt;div&gt;12hilos&lt;/div&gt;" style="rounded=0;whiteSpace=wrap;html=1;" vertex="1" parent="1">
          <mxGeometry x="135" y="160" width="125" height="70" as="geometry" />
        </mxCell>
        <mxCell id="FQAsNXkLelOl8Rg9aStv-4" value="Tarjeta Madre&lt;div&gt;ASUS B550m + WiFi&lt;/div&gt;" style="text;html=1;align=center;verticalAlign=middle;whiteSpace=wrap;rounded=0;" vertex="1" parent="1">
          <mxGeometry x="130" y="110" width="130" height="30" as="geometry" />
        </mxCell>
        <mxCell id="FQAsNXkLelOl8Rg9aStv-5" value="nVidia GTX 1650&lt;div&gt;4GB VRAM&lt;/div&gt;" style="rounded=0;whiteSpace=wrap;html=1;" vertex="1" parent="1">
          <mxGeometry x="290" y="160" width="120" height="140" as="geometry" />
        </mxCell>
        <mxCell id="FQAsNXkLelOl8Rg9aStv-6" value="32GB RAM 3200MHz" style="rounded=0;whiteSpace=wrap;html=1;" vertex="1" parent="1">
          <mxGeometry x="135" y="240" width="125" height="60" as="geometry" />
        </mxCell>
        <mxCell id="FQAsNXkLelOl8Rg9aStv-11" value="&lt;div&gt;Disco Principal&lt;/div&gt;SSD 2TB&lt;div&gt;7000MB/7000MB&lt;br&gt;NTFS&lt;/div&gt;" style="rounded=0;whiteSpace=wrap;html=1;" vertex="1" parent="1">
          <mxGeometry x="135" y="320" width="275" height="80" as="geometry" />
        </mxCell>
        <mxCell id="FQAsNXkLelOl8Rg9aStv-12" value="Disco Secundario&lt;div&gt;SSD 512GB&lt;/div&gt;&lt;div&gt;5000MB/5000MB&lt;/div&gt;&lt;div&gt;ex&lt;span style=&quot;background-color: initial;&quot;&gt;FAT&lt;/span&gt;&lt;/div&gt;" style="rounded=0;whiteSpace=wrap;html=1;" vertex="1" parent="1">
          <mxGeometry x="135" y="420" width="275" height="80" as="geometry" />
        </mxCell>
        <mxCell id="FQAsNXkLelOl8Rg9aStv-13" value="" style="rounded=0;whiteSpace=wrap;html=1;" vertex="1" parent="1">
          <mxGeometry x="135" y="520" width="275" height="130" as="geometry" />
        </mxCell>
        <mxCell id="FQAsNXkLelOl8Rg9aStv-14" value="Seagate&lt;br&gt;Skayhawk&lt;div&gt;HDD 4TB&lt;/div&gt;" style="rounded=0;whiteSpace=wrap;html=1;" vertex="1" parent="1">
          <mxGeometry x="150" y="570" width="120" height="60" as="geometry" />
        </mxCell>
        <mxCell id="FQAsNXkLelOl8Rg9aStv-15" value="RAID0" style="text;html=1;align=center;verticalAlign=middle;whiteSpace=wrap;rounded=0;" vertex="1" parent="1">
          <mxGeometry x="150" y="530" width="60" height="30" as="geometry" />
        </mxCell>
        <mxCell id="FQAsNXkLelOl8Rg9aStv-16" value="&lt;br&gt;&lt;span style=&quot;color: rgb(0, 0, 0); font-family: Helvetica; font-size: 12px; font-style: normal; font-variant-ligatures: normal; font-variant-caps: normal; font-weight: 400; letter-spacing: normal; orphans: 2; text-align: center; text-indent: 0px; text-transform: none; widows: 2; word-spacing: 0px; -webkit-text-stroke-width: 0px; white-space: normal; background-color: rgb(251, 251, 251); text-decoration-thickness: initial; text-decoration-style: initial; text-decoration-color: initial; display: inline !important; float: none;&quot;&gt;Seagate&lt;/span&gt;&lt;br style=&quot;forced-color-adjust: none; color: rgb(0, 0, 0); font-family: Helvetica; font-size: 12px; font-style: normal; font-variant-ligatures: normal; font-variant-caps: normal; font-weight: 400; letter-spacing: normal; orphans: 2; text-align: center; text-indent: 0px; text-transform: none; widows: 2; word-spacing: 0px; -webkit-text-stroke-width: 0px; white-space: normal; background-color: rgb(251, 251, 251); text-decoration-thickness: initial; text-decoration-style: initial; text-decoration-color: initial;&quot;&gt;&lt;span style=&quot;color: rgb(0, 0, 0); font-family: Helvetica; font-size: 12px; font-style: normal; font-variant-ligatures: normal; font-variant-caps: normal; font-weight: 400; letter-spacing: normal; orphans: 2; text-align: center; text-indent: 0px; text-transform: none; widows: 2; word-spacing: 0px; -webkit-text-stroke-width: 0px; white-space: normal; background-color: rgb(251, 251, 251); text-decoration-thickness: initial; text-decoration-style: initial; text-decoration-color: initial; display: inline !important; float: none;&quot;&gt;Skayhawk&lt;/span&gt;&lt;div style=&quot;forced-color-adjust: none; color: rgb(0, 0, 0); font-family: Helvetica; font-size: 12px; font-style: normal; font-variant-ligatures: normal; font-variant-caps: normal; font-weight: 400; letter-spacing: normal; orphans: 2; text-align: center; text-indent: 0px; text-transform: none; widows: 2; word-spacing: 0px; -webkit-text-stroke-width: 0px; white-space: normal; background-color: rgb(251, 251, 251); text-decoration-thickness: initial; text-decoration-style: initial; text-decoration-color: initial;&quot;&gt;HDD 4TB&lt;/div&gt;&lt;div&gt;&lt;br/&gt;&lt;/div&gt;" style="rounded=0;whiteSpace=wrap;html=1;" vertex="1" parent="1">
          <mxGeometry x="270" y="570" width="120" height="60" as="geometry" />
        </mxCell>
        <mxCell id="FQAsNXkLelOl8Rg9aStv-17" value="Mi PC" style="text;html=1;align=center;verticalAlign=middle;whiteSpace=wrap;rounded=0;" vertex="1" parent="1">
          <mxGeometry x="50" y="40" width="60" height="30" as="geometry" />
        </mxCell>
        <mxCell id="FQAsNXkLelOl8Rg9aStv-18" value="Disco Linux&lt;br&gt;SSD 240GB&lt;div&gt;3500MB/3500MB&lt;/div&gt;&lt;div&gt;EXT4&lt;/div&gt;" style="rounded=0;whiteSpace=wrap;html=1;" vertex="1" parent="1">
          <mxGeometry x="430" y="320" width="130" height="80" as="geometry" />
        </mxCell>
      </root>
    </mxGraphModel>
  </diagram>
</mxfile>
